<svg width="255" height="159" viewBox="0 0 255 159" fill="none" xmlns="http://www.w3.org/2000/svg">
<rect width="255" height="159" fill="#292E39"/>
<path d="M59.5358 113.2H67.5998V114.32H64.1558V123H62.9798V114.32H59.5358V113.2ZM70.3679 121.726L72.6359 116.28H73.8259L70.5219 124.008C69.8779 125.501 69.0332 126.248 67.9879 126.248C67.7359 126.248 67.4932 126.215 67.2599 126.15V125.184C67.4559 125.24 67.6519 125.268 67.8479 125.268C68.5666 125.268 69.1452 124.722 69.5839 123.63L69.8359 123.014L66.6439 116.28H67.8339L70.3679 121.726ZM77.8731 123H76.7531V117.316H74.2751V116.28H80.3371V117.316H77.8731V123ZM91.6606 119.836C91.6606 120.872 91.3433 121.689 90.7086 122.286C90.0833 122.874 89.2573 123.168 88.2306 123.168C87.1853 123.168 86.3406 122.823 85.6966 122.132C85.0619 121.441 84.7446 120.475 84.7446 119.234C84.7446 118.151 84.9313 117.218 85.3046 116.434C85.6779 115.65 86.1819 115.062 86.8166 114.67C87.2459 114.409 87.6893 114.203 88.1466 114.054C88.6133 113.895 88.9959 113.797 89.2946 113.76C89.6026 113.723 89.9199 113.648 90.2466 113.536C90.5733 113.415 90.8439 113.247 91.0586 113.032V114.208C90.7973 114.395 90.4753 114.535 90.0926 114.628C89.7099 114.712 89.2853 114.815 88.8186 114.936C88.3519 115.057 87.9039 115.244 87.4746 115.496C87.0546 115.748 86.7279 116.065 86.4946 116.448C86.2613 116.831 86.0559 117.288 85.8786 117.82C86.1213 117.447 86.4666 117.143 86.9146 116.91C87.3626 116.677 87.8433 116.56 88.3566 116.56C89.2619 116.56 90.0366 116.863 90.6806 117.47C91.3339 118.077 91.6606 118.865 91.6606 119.836ZM85.8646 119.864C85.8646 120.508 86.0793 121.045 86.5086 121.474C86.9379 121.894 87.5026 122.104 88.2026 122.104C88.9213 122.104 89.4906 121.894 89.9106 121.474C90.3306 121.054 90.5406 120.517 90.5406 119.864C90.5406 119.211 90.3306 118.674 89.9106 118.254C89.4906 117.834 88.9213 117.624 88.2026 117.624C87.5306 117.624 86.9706 117.853 86.5226 118.31C86.0839 118.758 85.8646 119.276 85.8646 119.864ZM95.7976 121.726L98.0656 116.28H99.2556L95.9516 124.008C95.3076 125.501 94.4629 126.248 93.4176 126.248C93.1656 126.248 92.9229 126.215 92.6896 126.15V125.184C92.8856 125.24 93.0816 125.268 93.2776 125.268C93.9963 125.268 94.5749 124.722 95.0136 123.63L95.2656 123.014L92.0736 116.28H93.2636L95.7976 121.726ZM100.349 124.82H99.2566V121.992H100.153C100.946 120.592 101.329 118.688 101.301 116.28H106.313V121.992H107.293V124.82H106.201V123H100.349V124.82ZM102.379 117.288C102.332 119.127 101.996 120.695 101.371 121.992H105.193V117.288H102.379ZM108.189 119.64C108.189 118.539 108.525 117.675 109.197 117.05C109.879 116.425 110.658 116.112 111.535 116.112C112.357 116.112 113.033 116.317 113.565 116.728C114.107 117.139 114.461 117.647 114.629 118.254C114.797 118.851 114.807 119.477 114.657 120.13H109.309C109.375 120.793 109.669 121.292 110.191 121.628C110.714 121.964 111.344 122.132 112.081 122.132C112.903 122.132 113.64 121.95 114.293 121.586V122.678C113.668 123.005 112.875 123.168 111.913 123.168C110.849 123.168 109.963 122.865 109.253 122.258C108.544 121.651 108.189 120.779 108.189 119.64ZM113.663 119.15C113.691 118.954 113.677 118.749 113.621 118.534C113.565 118.319 113.463 118.105 113.313 117.89C113.173 117.675 112.954 117.498 112.655 117.358C112.357 117.218 112.007 117.148 111.605 117.148C110.999 117.148 110.471 117.325 110.023 117.68C109.585 118.035 109.347 118.525 109.309 119.15H113.663ZM118.957 123H117.837V117.316H115.359V116.28H121.421V117.316H118.957V123ZM130.757 126.08H129.637V123.168C128.498 123.14 127.555 122.809 126.809 122.174C126.071 121.53 125.703 120.685 125.703 119.64C125.703 118.595 126.071 117.755 126.809 117.12C127.555 116.476 128.498 116.14 129.637 116.112V113.2H130.757V116.112C131.895 116.14 132.833 116.476 133.571 117.12C134.317 117.755 134.691 118.595 134.691 119.64C134.691 120.685 134.317 121.53 133.571 122.174C132.833 122.809 131.895 123.14 130.757 123.168V126.08ZM127.579 117.82C127.075 118.268 126.823 118.875 126.823 119.64C126.823 120.405 127.075 121.017 127.579 121.474C128.092 121.922 128.778 122.16 129.637 122.188V117.092C128.778 117.12 128.092 117.363 127.579 117.82ZM130.757 117.092V122.188C131.615 122.16 132.297 121.922 132.801 121.474C133.314 121.017 133.571 120.405 133.571 119.64C133.571 118.875 133.314 118.268 132.801 117.82C132.297 117.363 131.615 117.12 130.757 117.092ZM136.884 122.23C136.175 121.595 135.82 120.732 135.82 119.64C135.82 118.548 136.175 117.689 136.884 117.064C137.593 116.429 138.433 116.112 139.404 116.112C140.384 116.112 141.224 116.429 141.924 117.064C142.633 117.689 142.988 118.548 142.988 119.64C142.988 120.732 142.633 121.595 141.924 122.23C141.224 122.855 140.384 123.168 139.404 123.168C138.433 123.168 137.593 122.855 136.884 122.23ZM141.168 121.446C141.635 120.998 141.868 120.396 141.868 119.64C141.868 118.884 141.635 118.287 141.168 117.848C140.701 117.4 140.113 117.176 139.404 117.176C138.695 117.176 138.107 117.4 137.64 117.848C137.173 118.287 136.94 118.884 136.94 119.64C136.94 120.396 137.173 120.998 137.64 121.446C138.107 121.885 138.695 122.104 139.404 122.104C140.113 122.104 140.701 121.885 141.168 121.446ZM147.176 123H146.056V117.316H143.578V116.28H149.64V117.316H147.176V123ZM151.294 122.23C150.585 121.595 150.23 120.732 150.23 119.64C150.23 118.548 150.585 117.689 151.294 117.064C152.004 116.429 152.844 116.112 153.814 116.112C154.794 116.112 155.634 116.429 156.334 117.064C157.044 117.689 157.398 118.548 157.398 119.64C157.398 120.732 157.044 121.595 156.334 122.23C155.634 122.855 154.794 123.168 153.814 123.168C152.844 123.168 152.004 122.855 151.294 122.23ZM155.578 121.446C156.045 120.998 156.278 120.396 156.278 119.64C156.278 118.884 156.045 118.287 155.578 117.848C155.112 117.4 154.524 117.176 153.814 117.176C153.105 117.176 152.517 117.4 152.05 117.848C151.584 118.287 151.35 118.884 151.35 119.64C151.35 120.396 151.584 120.998 152.05 121.446C152.517 121.885 153.105 122.104 153.814 122.104C154.524 122.104 155.112 121.885 155.578 121.446ZM163.611 123H162.491V116.28H167.405V117.316H163.611V123ZM169.04 122.23C168.331 121.595 167.976 120.732 167.976 119.64C167.976 118.548 168.331 117.689 169.04 117.064C169.75 116.429 170.59 116.112 171.56 116.112C172.54 116.112 173.38 116.429 174.08 117.064C174.79 117.689 175.144 118.548 175.144 119.64C175.144 120.732 174.79 121.595 174.08 122.23C173.38 122.855 172.54 123.168 171.56 123.168C170.59 123.168 169.75 122.855 169.04 122.23ZM173.324 121.446C173.791 120.998 174.024 120.396 174.024 119.64C174.024 118.884 173.791 118.287 173.324 117.848C172.858 117.4 172.27 117.176 171.56 117.176C170.851 117.176 170.263 117.4 169.796 117.848C169.33 118.287 169.096 118.884 169.096 119.64C169.096 120.396 169.33 120.998 169.796 121.446C170.263 121.885 170.851 122.104 171.56 122.104C172.27 122.104 172.858 121.885 173.324 121.446ZM176.289 119.668C176.289 119.08 176.396 118.553 176.611 118.086C176.826 117.619 177.106 117.246 177.451 116.966C177.806 116.686 178.193 116.476 178.613 116.336C179.042 116.187 179.481 116.112 179.929 116.112C180.76 116.112 181.45 116.294 182.001 116.658V117.75C181.488 117.349 180.844 117.148 180.069 117.148C179.341 117.148 178.716 117.358 178.193 117.778C177.67 118.198 177.409 118.819 177.409 119.64C177.409 120.452 177.666 121.073 178.179 121.502C178.702 121.922 179.322 122.132 180.041 122.132C180.788 122.132 181.464 121.95 182.071 121.586V122.706C181.436 123.014 180.708 123.168 179.887 123.168C178.916 123.168 178.072 122.865 177.353 122.258C176.644 121.651 176.289 120.788 176.289 119.668ZM186.51 123H185.39V117.316H182.912V116.28H188.974V117.316H186.51V123ZM190.78 123H189.464L191.41 120.536C190.897 120.387 190.5 120.125 190.22 119.752C189.94 119.379 189.8 118.949 189.8 118.464C189.8 117.848 190.024 117.33 190.472 116.91C190.92 116.49 191.536 116.28 192.32 116.28H195.624V123H194.504V120.648H192.614L190.78 123ZM191.312 117.596C191.051 117.801 190.92 118.091 190.92 118.464C190.92 118.837 191.051 119.127 191.312 119.332C191.583 119.537 191.952 119.64 192.418 119.64H194.504V117.288H192.418C191.952 117.288 191.583 117.391 191.312 117.596Z" fill="#A1A6B4"/>
<path d="M152.834 97.875V91.7917C152.834 88.5649 151.552 85.4702 149.27 83.1885C146.988 80.9068 143.894 79.625 140.667 79.625H116.334C113.107 79.625 110.012 80.9068 107.731 83.1885C105.449 85.4702 104.167 88.5649 104.167 91.7917V97.875" stroke="#A1A6B4" stroke-width="2" stroke-linecap="round" stroke-linejoin="round"/>
<path d="M128.5 67.4583C135.22 67.4583 140.667 62.0111 140.667 55.2917C140.667 48.5722 135.22 43.125 128.5 43.125C121.781 43.125 116.333 48.5722 116.333 55.2917C116.333 62.0111 121.781 67.4583 128.5 67.4583Z" stroke="#A1A6B4" stroke-width="2" stroke-linecap="round" stroke-linejoin="round"/>
</svg>
