<svg width="40" height="40" viewBox="0 0 40 40" fill="none" xmlns="http://www.w3.org/2000/svg">
<circle cx="20" cy="20" r="20" fill="#D9D9D9"/>
<path fill-rule="evenodd" clip-rule="evenodd" d="M27.6924 25.758C27.6924 29.8515 24.6243 32.8205 19.7498 32.8205C18.3492 32.7785 16.9704 32.443 15.6931 31.8335C14.4157 31.224 13.2651 30.3525 12.3077 29.2694L13.9373 27.3554C15.4637 28.8983 17.2585 30.3977 19.7169 30.3977C22.4485 30.3977 25.3922 28.7717 25.3922 25.8498C25.3922 23.4233 23.5774 21.8407 19.7626 20.5933C15.4156 19.182 13.2104 17.2681 13.2104 13.6673C13.2081 10.1038 16.0452 7.17949 20.0921 7.17949C23.1132 7.17949 25.0042 8.54731 26.8436 10.2949L25.241 12.1853C23.6279 10.6673 22.0909 9.63834 20.2046 9.63834C17.8646 9.6371 15.5551 11.2407 15.5551 13.5469C15.5551 15.6371 16.6853 16.969 20.6782 18.2673C24.3359 19.4638 27.6924 21.3182 27.6924 25.7555V25.758Z" fill="#333333"/>
</svg>
