<svg width="30" height="30" viewBox="0 0 30 30" fill="none" xmlns="http://www.w3.org/2000/svg">
<path d="M8.71289 20H7.76367V13.9297C7.76367 13.6992 7.76367 13.502 7.76367 13.3379C7.76758 13.1699 7.77148 13.0176 7.77539 12.8809C7.7832 12.7402 7.79297 12.5977 7.80469 12.4531C7.68359 12.5781 7.57031 12.6855 7.46484 12.7754C7.35938 12.8613 7.22852 12.9688 7.07227 13.0977L6.09375 13.8828L5.58398 13.2207L7.9043 11.4336H8.71289V20ZM14.7891 11.3105C15.2852 11.3105 15.7246 11.3887 16.1074 11.5449C16.4902 11.7012 16.7891 11.9316 17.0039 12.2363C17.2227 12.5371 17.332 12.9082 17.332 13.3496C17.332 13.6973 17.2559 14.002 17.1035 14.2637C16.9551 14.5215 16.7539 14.748 16.5 14.9434C16.2461 15.1348 15.9648 15.3066 15.6562 15.459C16.0234 15.627 16.3535 15.8164 16.6465 16.0273C16.9434 16.2383 17.1777 16.4863 17.3496 16.7715C17.5215 17.0566 17.6074 17.3945 17.6074 17.7852C17.6074 18.2656 17.4902 18.6816 17.2559 19.0332C17.0254 19.3809 16.7012 19.6484 16.2832 19.8359C15.8652 20.0234 15.375 20.1172 14.8125 20.1172C14.207 20.1172 13.6914 20.0273 13.2656 19.8477C12.8438 19.6641 12.5215 19.4023 12.2988 19.0625C12.0801 18.7188 11.9707 18.3066 11.9707 17.8262C11.9707 17.4316 12.0547 17.0898 12.2227 16.8008C12.3906 16.5078 12.6133 16.2559 12.8906 16.0449C13.168 15.834 13.4707 15.6562 13.7988 15.5117C13.5137 15.3555 13.252 15.1777 13.0137 14.9785C12.7793 14.7793 12.5918 14.5469 12.4512 14.2812C12.3145 14.0117 12.2461 13.6992 12.2461 13.3438C12.2461 12.9102 12.3555 12.543 12.5742 12.2422C12.7969 11.9375 13.0996 11.707 13.4824 11.5508C13.8691 11.3906 14.3047 11.3105 14.7891 11.3105ZM12.9258 17.832C12.9258 18.2695 13.0801 18.6309 13.3887 18.916C13.6973 19.1973 14.1641 19.3379 14.7891 19.3379C15.3828 19.3379 15.8418 19.1973 16.166 18.916C16.4902 18.6309 16.6523 18.2578 16.6523 17.7969C16.6523 17.5117 16.5781 17.2617 16.4297 17.0469C16.2812 16.8281 16.0703 16.6328 15.7969 16.4609C15.5234 16.2891 15.2012 16.1328 14.8301 15.9922L14.6191 15.916C14.2598 16.0645 13.9531 16.2305 13.6992 16.4141C13.4492 16.5938 13.2578 16.7988 13.125 17.0293C12.9922 17.2598 12.9258 17.5273 12.9258 17.832ZM14.7773 12.1074C14.3164 12.1074 13.9395 12.2188 13.6465 12.4414C13.3535 12.6602 13.207 12.9766 13.207 13.3906C13.207 13.6875 13.2773 13.9395 13.418 14.1465C13.5625 14.3496 13.7578 14.5254 14.0039 14.6738C14.25 14.8184 14.5254 14.9531 14.8301 15.0781C15.127 14.9531 15.3906 14.8164 15.6211 14.668C15.8516 14.5156 16.0332 14.3359 16.166 14.1289C16.2988 13.9219 16.3652 13.6738 16.3652 13.3848C16.3652 12.9707 16.2188 12.6543 15.9258 12.4355C15.6367 12.2168 15.2539 12.1074 14.7773 12.1074ZM22.0547 15.3711H24.4688V16.168H22.0547V18.6523H21.252V16.168H18.8379V15.3711H21.252V12.875H22.0547V15.3711Z" fill="#A1A6B4"/>
<rect x="0.5" y="0.5" width="29" height="29" rx="14.5" stroke="#A1A6B4"/>
</svg>
