<svg width="34" height="12" viewBox="0 0 34 12" fill="none" xmlns="http://www.w3.org/2000/svg">
<path opacity="0.6" fill-rule="evenodd" clip-rule="evenodd" d="M9.04254 6.35382C7.00264 8.83127 4.80523 11.5 0.444458 11.5H0V10.5H0.444458C4.30677 10.5 6.23136 8.19465 8.30021 5.68217L8.33725 5.63719C10.3744 3.16298 12.567 0.5 16.9131 0.5C21.2738 0.5 23.4712 3.16873 25.5111 5.64617L25.5407 5.68217C27.6102 8.19537 29.5296 10.5 33.3816 10.5H34V11.5H33.3816C29.0356 11.5 26.843 8.83701 24.8058 6.36279L24.7688 6.31783C22.6999 3.80535 20.7753 1.5 16.9131 1.5C13.0611 1.5 11.1416 3.80463 9.07218 6.31783L9.04254 6.35382Z" fill="#E6E8EC" fill-opacity="0.4"/>
</svg>
