<svg width="257" height="502" viewBox="0 0 257 502" fill="none" xmlns="http://www.w3.org/2000/svg">
<path fill-rule="evenodd" clip-rule="evenodd" d="M215.775 0.5C195.918 0.5 177.92 3.06932 164.87 7.23632C158.348 9.31891 153.034 11.8093 149.339 14.5984C145.653 17.3813 143.5 20.5257 143.5 23.9184C143.5 27.311 145.653 30.4554 149.339 33.2383C151.162 34.6143 153.379 35.9176 155.941 37.1351C153.379 38.3526 151.162 39.6559 149.339 41.0319C145.653 43.8148 143.5 46.9591 143.5 50.3518C143.5 53.7445 145.653 56.8889 149.339 59.6718C151.177 61.0595 153.416 62.3733 156.006 63.5997C153.416 64.8338 151.176 66.1558 149.338 67.5522C145.651 70.3524 143.5 73.5152 143.5 76.9259C143.5 80.3366 145.651 83.4993 149.338 86.2996C151.176 87.6961 153.416 89.0181 156.006 90.2523C153.417 91.4786 151.177 92.7924 149.339 94.1801C145.653 96.9629 143.5 100.107 143.5 103.5C143.5 106.893 145.653 110.037 149.339 112.82C151.162 114.196 153.379 115.499 155.941 116.717C153.379 117.934 151.162 119.238 149.339 120.614C145.653 123.397 143.5 126.541 143.5 129.934C143.5 133.326 145.653 136.471 149.339 139.254C151.162 140.63 153.379 141.933 155.94 143.15C153.379 144.368 151.162 145.671 149.339 147.047C145.653 149.83 143.5 152.974 143.5 156.367C143.5 159.759 145.653 162.904 149.339 165.687C151.177 167.074 153.417 168.388 156.006 169.615C153.416 170.849 151.176 172.171 149.338 173.567C147.101 175.267 145.429 177.099 144.46 179.04C143.833 180.29 143.5 181.585 143.5 182.918L143.5 182.93L143.5 182.941C143.5 186.351 145.651 189.514 149.338 192.314C151.136 193.68 153.317 194.975 155.835 196.185C153.318 197.388 151.137 198.675 149.339 200.032C145.653 202.815 143.5 205.959 143.5 209.352C143.5 212.744 145.653 215.889 149.339 218.672C151.177 220.06 153.416 221.373 156.006 222.6C153.416 223.834 151.176 225.156 149.338 226.552C145.651 229.352 143.5 232.515 143.5 235.926C143.5 239.337 145.651 242.499 149.338 245.3C151.176 246.696 153.416 248.018 156.006 249.252C153.417 250.479 151.177 251.792 149.339 253.18C145.653 255.963 143.5 259.107 143.5 262.5C143.5 265.893 145.653 269.037 149.339 271.82C151.162 273.196 153.379 274.499 155.941 275.717C153.379 276.934 151.162 278.238 149.339 279.614C145.653 282.397 143.5 285.541 143.5 288.934C143.5 292.326 145.653 295.471 149.339 298.254C151.162 299.63 153.379 300.933 155.94 302.15C153.379 303.368 151.162 304.671 149.339 306.047C145.653 308.83 143.5 311.974 143.5 315.367C143.5 318.759 145.653 321.904 149.339 324.687C151.177 326.074 153.417 327.388 156.006 328.615C153.416 329.849 151.176 331.171 149.338 332.567C145.651 335.367 143.5 338.53 143.5 341.941C143.5 345.351 145.651 348.514 149.338 351.314C153.033 354.121 158.347 356.627 164.869 358.722C177.92 362.915 195.918 365.5 215.775 365.5C216.051 365.5 216.275 365.276 216.275 365C216.275 364.724 216.051 364.5 215.775 364.5C195.992 364.5 178.102 361.923 165.175 357.77C158.709 355.693 153.512 353.229 149.943 350.518C146.366 347.801 144.5 344.898 144.5 341.941C144.5 338.984 146.366 336.081 149.943 333.363C151.894 331.881 154.332 330.473 157.198 329.162C159.513 330.193 162.081 331.158 164.87 332.049C177.92 336.216 195.918 338.785 215.775 338.785C226.91 338.785 237.008 337.697 244.336 335.93C247.996 335.047 250.993 333.988 253.087 332.794C255.142 331.622 256.5 330.218 256.5 328.583C256.5 326.949 255.142 325.545 253.087 324.373C250.992 323.179 247.996 322.12 244.336 321.238C237.008 319.47 226.91 318.382 215.775 318.382C195.918 318.382 177.92 320.967 164.869 325.16C162.08 326.056 159.512 327.027 157.196 328.065C154.331 326.761 151.893 325.362 149.942 323.889C146.364 321.188 144.5 318.303 144.5 315.367C144.5 312.431 146.364 309.546 149.942 306.845C151.878 305.383 154.294 303.994 157.131 302.699C159.464 303.741 162.054 304.716 164.87 305.616C177.92 309.783 195.918 312.352 215.775 312.352C226.91 312.352 237.008 311.264 244.336 309.496C247.996 308.614 250.992 307.555 253.087 306.361C255.142 305.189 256.5 303.785 256.5 302.151C256.5 300.516 255.142 299.112 253.087 297.94C250.993 296.746 247.996 295.687 244.336 294.804C237.008 293.037 226.91 291.949 215.775 291.949C195.918 291.949 177.92 294.518 164.87 298.685C162.054 299.584 159.464 300.559 157.131 301.602C154.294 300.307 151.878 298.917 149.942 297.455C146.364 294.755 144.5 291.87 144.5 288.934C144.5 285.998 146.364 283.113 149.942 280.412C151.878 278.95 154.294 277.56 157.131 276.265C159.464 277.308 162.054 278.283 164.87 279.182C177.92 283.349 195.918 285.918 215.775 285.918C226.91 285.918 237.008 284.83 244.336 283.063C247.996 282.18 250.992 281.122 253.087 279.928C255.142 278.756 256.5 277.351 256.5 275.717C256.5 274.083 255.142 272.678 253.087 271.506C250.993 270.312 247.996 269.253 244.336 268.37C237.008 266.603 226.91 265.515 215.775 265.515C195.918 265.515 177.92 268.084 164.87 272.251C162.054 273.151 159.464 274.126 157.131 275.168C154.294 273.873 151.878 272.484 149.942 271.022C146.364 268.321 144.5 265.436 144.5 262.5C144.5 259.564 146.364 256.679 149.942 253.978C151.893 252.505 154.331 251.106 157.196 249.802C159.512 250.84 162.08 251.811 164.869 252.707C177.92 256.9 195.918 259.485 215.775 259.485C226.91 259.485 237.008 258.397 244.336 256.63C247.996 255.747 250.993 254.688 253.087 253.494C255.142 252.322 256.5 250.917 256.5 249.283C256.5 247.649 255.142 246.244 253.087 245.072C250.992 243.878 247.996 242.82 244.336 241.937C237.008 240.17 226.91 239.082 215.775 239.082C195.918 239.082 177.92 241.651 164.87 245.818C162.081 246.709 159.513 247.674 157.198 248.705C154.332 247.394 151.894 245.986 149.943 244.503C146.366 241.786 144.5 238.883 144.5 235.926C144.5 232.969 146.366 230.066 149.943 227.348C151.894 225.866 154.332 224.458 157.197 223.147C159.513 224.178 162.081 225.143 164.87 226.034C177.92 230.201 195.918 232.771 215.775 232.771C226.91 232.771 237.008 231.682 244.336 229.915C247.996 229.032 250.993 227.974 253.087 226.779C255.142 225.607 256.5 224.203 256.5 222.569C256.5 220.934 255.142 219.53 253.087 218.358C250.993 217.164 247.996 216.105 244.336 215.222C237.008 213.455 226.91 212.367 215.775 212.367C195.918 212.367 177.92 214.952 164.869 219.145C162.08 220.041 159.512 221.012 157.196 222.05C154.331 220.746 151.893 219.347 149.942 217.874C146.364 215.173 144.5 212.288 144.5 209.352C144.5 206.416 146.364 203.531 149.942 200.83C151.852 199.388 154.229 198.016 157.017 196.736C159.378 197.804 162.008 198.803 164.869 199.722C177.92 203.915 195.918 206.5 215.775 206.5C215.922 206.5 216.054 206.437 216.145 206.336C227.134 206.313 237.089 205.229 244.336 203.481C247.996 202.599 250.993 201.54 253.087 200.346C255.142 199.174 256.5 197.769 256.5 196.135C256.5 194.501 255.142 193.096 253.087 191.924C250.993 190.73 247.996 189.672 244.336 188.789C237.008 187.022 226.91 185.933 215.775 185.933C195.918 185.933 177.92 188.503 164.87 192.67C162.054 193.569 159.464 194.544 157.131 195.586C154.294 194.292 151.878 192.902 149.942 191.44C146.368 188.743 144.505 185.862 144.5 182.93C144.502 181.773 144.789 180.624 145.353 179.491C146.228 177.745 147.769 176.037 149.942 174.397C151.908 172.912 154.368 171.503 157.262 170.191C159.561 171.211 162.107 172.167 164.87 173.049C177.92 177.216 195.918 179.785 215.775 179.785C226.91 179.785 237.008 178.697 244.336 176.93C247.996 176.047 250.993 174.988 253.087 173.794C255.142 172.622 256.5 171.218 256.5 169.583C256.5 167.949 255.142 166.545 253.087 165.373C250.992 164.179 247.996 163.12 244.336 162.238C237.008 160.47 226.91 159.382 215.775 159.382C195.918 159.382 177.92 161.967 164.869 166.16C162.08 167.056 159.512 168.027 157.196 169.065C154.331 167.761 151.893 166.362 149.942 164.889C146.364 162.188 144.5 159.303 144.5 156.367C144.5 153.431 146.364 150.546 149.942 147.845C151.878 146.383 154.294 144.994 157.131 143.699C159.464 144.741 162.054 145.716 164.87 146.616C177.92 150.783 195.918 153.352 215.775 153.352C226.91 153.352 237.008 152.264 244.336 150.496C247.996 149.614 250.992 148.555 253.087 147.361C255.142 146.189 256.5 144.785 256.5 143.151C256.5 141.516 255.142 140.112 253.087 138.94C250.993 137.746 247.996 136.687 244.336 135.804C237.008 134.037 226.91 132.949 215.775 132.949C195.918 132.949 177.92 135.518 164.87 139.685C162.054 140.584 159.464 141.559 157.131 142.602C154.294 141.307 151.878 139.917 149.942 138.455C146.364 135.755 144.5 132.87 144.5 129.934C144.5 126.998 146.364 124.113 149.942 121.412C151.878 119.95 154.294 118.56 157.131 117.265C159.464 118.308 162.054 119.283 164.87 120.182C177.92 124.349 195.918 126.918 215.775 126.918C226.91 126.918 237.008 125.83 244.336 124.063C247.996 123.18 250.992 122.122 253.087 120.928C255.142 119.756 256.5 118.351 256.5 116.717C256.5 115.083 255.142 113.678 253.087 112.506C250.993 111.312 247.996 110.253 244.336 109.37C237.008 107.603 226.91 106.515 215.775 106.515C195.918 106.515 177.92 109.084 164.87 113.251C162.054 114.151 159.464 115.126 157.131 116.168C154.294 114.873 151.878 113.484 149.942 112.022C146.364 109.321 144.5 106.436 144.5 103.5C144.5 100.564 146.364 97.6791 149.942 94.9782C151.893 93.5051 154.331 92.1056 157.196 90.8022C159.512 91.8399 162.08 92.811 164.869 93.7072C177.92 97.8999 195.918 100.485 215.775 100.485C226.91 100.485 237.008 99.397 244.336 97.6295C247.996 96.7468 250.993 95.6881 253.087 94.4939C255.142 93.3219 256.5 91.9175 256.5 90.2831C256.5 88.6488 255.142 87.2444 253.087 86.0725C250.992 84.8784 247.996 83.8198 244.336 82.9371C237.008 81.1699 226.91 80.082 215.775 80.082C195.918 80.082 177.92 82.6512 164.87 86.8181C162.081 87.7087 159.513 88.6738 157.198 89.705C154.332 88.3936 151.894 86.9855 149.943 85.5033C146.366 82.7861 144.5 79.8827 144.5 76.9259C144.5 73.9691 146.366 71.0657 149.943 68.3485C151.894 66.8663 154.332 65.4583 157.197 64.1469C159.513 65.1782 162.081 66.1434 164.87 67.0341C177.92 71.2012 195.918 73.7706 215.775 73.7706C226.91 73.7706 237.008 72.6824 244.336 70.915C247.996 70.0322 250.993 68.9735 253.087 67.7794C255.142 66.6073 256.5 65.2029 256.5 63.5686C256.5 61.9343 255.142 60.5299 253.087 59.3579C250.993 58.1638 247.996 57.1051 244.336 56.2224C237.008 54.455 226.91 53.3669 215.775 53.3669C195.918 53.3669 177.92 55.9521 164.869 60.1447C162.08 61.0409 159.512 62.0121 157.196 63.0497C154.331 61.7463 151.893 60.3469 149.942 58.8737C146.364 56.1727 144.5 53.2879 144.5 50.3518C144.5 47.4157 146.364 44.531 149.942 41.83C151.878 40.368 154.294 38.9787 157.131 37.6837C159.464 38.7261 162.054 39.7013 164.87 40.6004C177.92 44.7674 195.918 47.3368 215.775 47.3368C226.91 47.3368 237.008 46.2487 244.336 44.4813C247.996 43.5986 250.993 42.5399 253.087 41.3458C255.142 40.1738 256.5 38.7694 256.5 37.1351C256.5 35.5008 255.142 34.0964 253.087 32.9244C250.993 31.7304 247.996 30.6717 244.336 29.7889C237.008 28.0216 226.91 26.9335 215.775 26.9335C195.918 26.9335 177.92 29.5028 164.87 33.6698C162.054 34.5689 159.464 35.5441 157.131 36.5865C154.294 35.2915 151.878 33.9021 149.942 32.4402C146.364 29.7392 144.5 26.8544 144.5 23.9184C144.5 20.9823 146.364 18.0975 149.942 15.3965C153.511 12.7018 158.708 10.2538 165.174 8.18894C178.102 4.06113 195.992 1.5 215.775 1.5C216.051 1.5 216.275 1.27614 216.275 1C216.275 0.723858 216.051 0.5 215.775 0.5ZM215.775 160.5C215.898 160.5 216.01 160.456 216.097 160.383C227.049 160.403 236.94 161.483 244.101 163.21C247.72 164.083 250.614 165.115 252.591 166.242C254.607 167.391 255.5 168.539 255.5 169.583C255.5 170.628 254.607 171.776 252.591 172.926C250.614 174.053 247.72 175.085 244.101 175.958C236.87 177.702 226.855 178.785 215.775 178.785C195.992 178.785 178.102 176.224 165.174 172.096C162.771 171.329 160.544 170.509 158.51 169.643C160.544 168.776 162.771 167.956 165.174 167.189C178.102 163.061 195.992 160.5 215.775 160.5ZM165.174 331.096C162.743 330.32 160.491 329.489 158.438 328.612C160.491 327.729 162.744 326.893 165.175 326.112C178.102 321.959 195.992 319.382 215.775 319.382C226.855 319.382 236.87 320.466 244.101 322.21C247.72 323.083 250.614 324.115 252.591 325.242C254.607 326.391 255.5 327.539 255.5 328.583C255.5 329.628 254.607 330.776 252.591 331.926C250.614 333.053 247.72 334.085 244.101 334.958C236.87 336.702 226.855 337.785 215.775 337.785C195.992 337.785 178.102 335.224 165.174 331.096ZM165.174 304.663C162.717 303.878 160.443 303.038 158.372 302.15C160.443 301.262 162.717 300.422 165.174 299.638C178.102 295.51 195.992 292.949 215.775 292.949C226.855 292.949 236.87 294.032 244.101 295.776C247.72 296.649 250.614 297.681 252.591 298.808C254.607 299.958 255.5 301.106 255.5 302.151C255.5 303.195 254.607 304.343 252.591 305.492C250.614 306.619 247.72 307.651 244.101 308.524C236.87 310.268 226.855 311.352 215.775 311.352C195.992 311.352 178.102 308.791 165.174 304.663ZM165.174 278.229C162.717 277.445 160.443 276.605 158.372 275.717C160.443 274.829 162.717 273.989 165.174 273.204C178.102 269.076 195.992 266.515 215.775 266.515C226.855 266.515 236.87 267.599 244.101 269.343C247.72 270.216 250.614 271.247 252.591 272.375C254.607 273.524 255.5 274.672 255.5 275.717C255.5 276.762 254.607 277.909 252.591 279.059C250.614 280.186 247.72 281.218 244.101 282.091C236.87 283.835 226.855 284.918 215.775 284.918C195.992 284.918 178.102 282.357 165.174 278.229ZM165.175 251.755C162.744 250.974 160.491 250.138 158.438 249.255C160.491 248.378 162.743 247.547 165.174 246.771C178.102 242.643 195.992 240.082 215.775 240.082C226.855 240.082 236.87 241.165 244.101 242.909C247.72 243.782 250.614 244.814 252.591 245.941C254.607 247.091 255.5 248.238 255.5 249.283C255.5 250.328 254.607 251.476 252.591 252.625C250.614 253.753 247.72 254.784 244.101 255.657C236.87 257.401 226.855 258.485 215.775 258.485C195.992 258.485 178.102 255.908 165.175 251.755ZM165.174 225.081C162.743 224.305 160.491 223.474 158.438 222.597C160.491 221.714 162.743 220.878 165.175 220.097C178.102 215.944 195.992 213.367 215.775 213.367C226.855 213.367 236.87 214.451 244.101 216.195C247.72 217.067 250.614 218.099 252.591 219.227C254.607 220.376 255.5 221.524 255.5 222.569C255.5 223.613 254.607 224.761 252.591 225.911C250.614 227.038 247.72 228.07 244.101 228.943C236.87 230.687 226.855 231.771 215.775 231.771C195.992 231.771 178.102 229.209 165.174 225.081ZM165.174 198.648C162.717 197.863 160.443 197.023 158.372 196.135C160.443 195.247 162.717 194.407 165.174 193.622C178.102 189.495 195.992 186.933 215.775 186.933C226.855 186.933 236.87 188.017 244.101 189.761C247.72 190.634 250.614 191.666 252.591 192.793C254.607 193.943 255.5 195.09 255.5 196.135C255.5 197.18 254.607 198.328 252.591 199.477C250.614 200.604 247.72 201.636 244.101 202.509C236.87 204.253 226.855 205.337 215.775 205.337C195.992 205.337 178.102 202.776 165.174 198.648ZM165.174 145.663C162.717 144.878 160.443 144.038 158.372 143.15C160.443 142.262 162.717 141.422 165.174 140.638C178.102 136.51 195.992 133.949 215.775 133.949C226.855 133.949 236.87 135.032 244.101 136.776C247.72 137.649 250.614 138.681 252.591 139.808C254.607 140.958 255.5 142.106 255.5 143.151C255.5 144.195 254.607 145.343 252.591 146.492C250.614 147.619 247.72 148.651 244.101 149.524C236.87 151.268 226.855 152.352 215.775 152.352C195.992 152.352 178.102 149.791 165.174 145.663ZM165.174 119.229C162.717 118.445 160.443 117.605 158.372 116.717C160.443 115.829 162.717 114.989 165.174 114.204C178.102 110.076 195.992 107.515 215.775 107.515C226.855 107.515 236.87 108.599 244.101 110.343C247.72 111.216 250.614 112.247 252.591 113.375C254.607 114.524 255.5 115.672 255.5 116.717C255.5 117.762 254.607 118.909 252.591 120.059C250.614 121.186 247.72 122.218 244.101 123.091C236.87 124.835 226.855 125.918 215.775 125.918C195.992 125.918 178.102 123.357 165.174 119.229ZM165.175 92.7551C162.744 91.9738 160.491 91.1381 158.438 90.2551C160.491 89.3776 162.743 88.5471 165.174 87.7707C178.102 83.643 195.992 81.082 215.775 81.082C226.855 81.082 236.87 82.1655 244.101 83.9093C247.72 84.7821 250.614 85.8139 252.591 86.9412C254.607 88.0905 255.5 89.2383 255.5 90.2831C255.5 91.3279 254.607 92.4758 252.591 93.6252C250.614 94.7526 247.72 95.7845 244.101 96.6574C236.87 98.4014 226.855 99.4851 215.775 99.4851C195.992 99.4851 178.102 96.9082 165.175 92.7551ZM165.174 66.0815C162.743 65.305 160.491 64.4744 158.438 63.5969C160.491 62.7139 162.743 61.8781 165.175 61.0968C178.102 56.9437 195.992 54.3669 215.775 54.3669C226.855 54.3669 236.87 55.4506 244.101 57.1945C247.72 58.0675 250.614 59.0993 252.591 60.2266C254.607 61.376 255.5 62.5238 255.5 63.5686C255.5 64.6134 254.607 65.7613 252.591 66.9107C250.614 68.038 247.72 69.0699 244.101 69.9429C236.87 71.6869 226.855 72.7706 215.775 72.7706C195.992 72.7706 178.102 70.2094 165.174 66.0815ZM165.174 39.6478C162.717 38.8631 160.443 38.023 158.372 37.1351C160.443 36.2472 162.717 35.4071 165.174 34.6224C178.102 30.4946 195.992 27.9335 215.775 27.9335C226.855 27.9335 236.87 29.0171 244.101 30.7611C247.72 31.634 250.614 32.6659 252.591 33.7931C254.607 34.9425 255.5 36.0904 255.5 37.1351C255.5 38.1799 254.607 39.3277 252.591 40.4771C250.614 41.6044 247.72 42.6362 244.101 43.5092C236.87 45.2531 226.855 46.3368 215.775 46.3368C195.992 46.3368 178.102 43.7756 165.174 39.6478ZM73.4159 136.5C53.382 136.5 35.2248 139.069 22.0592 143.236C15.4793 145.318 10.1181 147.808 6.39122 150.597C2.67319 153.379 0.5 156.524 0.5 159.918C0.5 163.313 2.67319 166.458 6.39122 169.24C8.22952 170.615 10.4654 171.918 13.049 173.135C10.4654 174.352 8.22952 175.655 6.39122 177.031C2.67319 179.813 0.5 182.957 0.5 186.352C0.5 189.746 2.67318 192.891 6.39122 195.673C8.24513 197.06 10.5034 198.374 13.115 199.6C10.5029 200.833 8.24423 202.155 6.39005 203.551C2.67157 206.35 0.5 209.513 0.5 212.926C0.5 216.339 2.67157 219.501 6.39004 222.301C8.24428 223.697 10.503 225.018 13.1152 226.252C10.5036 227.478 8.24519 228.792 6.39122 230.179C2.67319 232.961 0.5 236.105 0.5 239.5C0.5 242.895 2.67319 246.039 6.39122 248.821C8.22956 250.197 10.4655 251.5 13.0492 252.717C10.4655 253.934 8.22955 255.237 6.39122 256.612C2.67318 259.394 0.5 262.539 0.5 265.934C0.5 269.328 2.67319 272.473 6.39122 275.255C8.2295 276.63 10.4654 277.933 13.049 279.15C10.4654 280.367 8.22951 281.67 6.39123 283.046C2.6732 285.828 0.5 288.972 0.5 292.367C0.5 295.761 2.67318 298.906 6.39122 301.688C8.24518 303.075 10.5036 304.389 13.1152 305.615C10.5031 306.848 8.24428 308.17 6.39005 309.566C4.13318 311.265 2.44615 313.098 1.4686 315.039C0.835578 316.289 0.5 317.584 0.5 318.918L0.500008 318.93L0.5 318.941C0.5 322.353 2.67157 325.516 6.39004 328.316C8.20336 329.681 10.4036 330.975 12.9428 332.185C10.4041 333.388 8.20427 334.674 6.39122 336.031C2.67319 338.813 0.5 341.957 0.5 345.352C0.5 348.746 2.67318 351.891 6.39122 354.673C8.24513 356.06 10.5034 357.374 13.115 358.6C10.5029 359.833 8.24422 361.155 6.39005 362.551C2.67157 365.35 0.5 368.513 0.5 371.926C0.5 375.339 2.67157 378.501 6.39004 381.301C8.24428 382.697 10.503 384.018 13.1152 385.252C10.5036 386.478 8.24519 387.792 6.39122 389.179C2.67319 391.961 0.5 395.105 0.5 398.5C0.5 401.895 2.67319 405.039 6.39122 407.821C8.22955 409.197 10.4655 410.5 13.0492 411.717C10.4655 412.934 8.22955 414.237 6.39122 415.612C2.67318 418.394 0.5 421.539 0.5 424.934C0.5 428.328 2.67319 431.473 6.39122 434.255C8.22951 435.63 10.4654 436.933 13.049 438.15C10.4654 439.367 8.22951 440.67 6.39123 442.046C2.6732 444.828 0.5 447.972 0.5 451.367C0.5 454.761 2.67318 457.906 6.39122 460.688C8.24518 462.075 10.5035 463.389 13.1152 464.615C10.503 465.848 8.24428 467.17 6.39005 468.566C2.67157 471.365 0.5 474.528 0.5 477.941C0.5 481.353 2.67157 484.516 6.39005 487.316C10.117 490.122 15.4783 492.627 22.0583 494.722C35.2242 498.915 53.3818 501.5 73.4159 501.5C73.6921 501.5 73.9159 501.276 73.9159 501C73.9159 500.724 73.6921 500.5 73.4159 500.5C53.4556 500.5 35.4052 497.923 22.3618 493.77C15.8372 491.692 10.5934 489.229 6.9915 486.517C3.38112 483.799 1.5 480.896 1.5 477.941C1.5 474.986 3.38112 472.083 6.9915 469.365C8.96142 467.882 11.4224 466.473 14.3155 465.161C16.6519 466.193 19.244 467.158 22.0592 468.049C35.2248 472.216 53.382 474.785 73.4159 474.785C84.6501 474.785 94.837 473.697 102.229 471.93C105.922 471.047 108.945 469.989 111.057 468.795C113.129 467.624 114.5 466.22 114.5 464.583C114.5 462.947 113.129 461.543 111.057 460.372C108.945 459.179 105.922 458.12 102.229 457.238C94.837 455.47 84.6501 454.382 73.4159 454.382C53.3818 454.382 35.2243 456.967 22.0583 461.159C19.243 462.056 16.6508 463.027 14.3142 464.065C11.4212 462.761 8.96022 461.361 6.99033 459.887C3.37951 457.185 1.5 454.301 1.5 451.367C1.5 448.433 3.37949 445.548 6.99032 442.846C8.94524 441.384 11.3838 439.994 14.2483 438.698C16.6022 439.741 19.217 440.716 22.0592 441.616C35.2248 445.783 53.382 448.352 73.4159 448.352C84.6501 448.352 94.837 447.264 102.229 445.496C105.922 444.614 108.945 443.555 111.057 442.362C113.129 441.191 114.5 439.787 114.5 438.151C114.5 436.514 113.129 435.11 111.057 433.939C108.945 432.745 105.922 431.687 102.229 430.804C94.837 429.037 84.6501 427.949 73.4159 427.949C53.382 427.949 35.2248 430.518 22.0592 434.685C19.217 435.584 16.6022 436.56 14.2483 437.603C11.3838 436.307 8.94523 434.917 6.99032 433.454C3.3795 430.752 1.5 427.868 1.5 424.934C1.5 422 3.37951 419.115 6.99033 416.413C8.94528 414.95 11.3839 413.56 14.2485 412.265C16.6024 413.307 19.2171 414.283 22.0592 415.182C35.2248 419.349 53.382 421.918 73.4159 421.918C84.6501 421.918 94.837 420.83 102.229 419.063C105.922 418.181 108.945 417.122 111.057 415.928C113.129 414.758 114.5 413.353 114.5 411.717C114.5 410.08 113.129 408.676 111.057 407.505C108.945 406.311 105.922 405.253 102.229 404.37C94.837 402.603 84.6501 401.515 73.4159 401.515C53.382 401.515 35.2248 404.084 22.0592 408.251C19.2171 409.151 16.6023 410.126 14.2485 411.169C11.3839 409.873 8.94527 408.483 6.99032 407.021C3.3795 404.319 1.5 401.434 1.5 398.5C1.5 395.566 3.3795 392.681 6.99032 389.979C8.96021 388.506 11.4212 387.105 14.3142 385.801C16.6508 386.839 19.243 387.811 22.0583 388.708C35.2242 392.9 53.3818 395.485 73.4159 395.485C84.6501 395.485 94.837 394.397 102.229 392.63C105.922 391.747 108.945 390.689 111.057 389.495C113.129 388.324 114.5 386.92 114.5 385.283C114.5 383.647 113.129 382.242 111.057 381.072C108.945 379.878 105.922 378.819 102.229 377.937C94.837 376.17 84.6501 375.082 73.4159 375.082C53.382 375.082 35.2248 377.651 22.0592 381.818C19.244 382.709 16.6519 383.674 14.3155 384.706C11.4224 383.394 8.96142 381.985 6.9915 380.502C3.38112 377.784 1.5 374.881 1.5 371.926C1.5 368.971 3.38112 366.068 6.9915 363.35C8.96136 361.867 11.4223 360.458 14.3152 359.146C16.6517 360.178 19.2439 361.143 22.0592 362.034C35.2248 366.201 53.382 368.771 73.4159 368.771C84.6501 368.771 94.837 367.682 102.229 365.915C105.922 365.033 108.945 363.974 111.057 362.78C113.129 361.609 114.5 360.205 114.5 358.569C114.5 356.932 113.129 355.528 111.057 354.357C108.945 353.163 105.922 352.105 102.229 351.222C94.837 349.455 84.6501 348.367 73.4159 348.367C53.3818 348.367 35.2243 350.952 22.0583 355.144C19.2429 356.041 16.6506 357.012 14.314 358.051C11.4211 356.747 8.96016 355.346 6.99033 353.872C3.3795 351.171 1.5 348.286 1.5 345.352C1.5 342.418 3.3795 339.533 6.99032 336.831C8.91891 335.388 11.3182 334.016 14.1328 332.735C16.5164 333.804 19.1699 334.803 22.0583 335.722C35.2242 339.915 53.3818 342.5 73.4159 342.5C73.5625 342.5 73.6944 342.437 73.7858 342.336C84.8736 342.313 94.9182 341.229 102.229 339.482C105.922 338.599 108.945 337.54 111.057 336.347C113.129 335.176 114.5 333.772 114.5 332.135C114.5 330.499 113.129 329.094 111.057 327.924C108.945 326.73 105.922 325.671 102.229 324.789C94.837 323.022 84.6501 321.933 73.4159 321.933C53.382 321.933 35.2248 324.503 22.0592 328.669C19.217 329.569 16.6022 330.544 14.2484 331.587C11.3838 330.292 8.94524 328.902 6.99032 327.439C3.38408 324.74 1.50476 321.86 1.50001 318.93C1.50187 317.773 1.79171 316.625 2.36041 315.493C3.24298 313.747 4.79735 312.039 6.99032 310.398C8.97529 308.913 11.4589 307.502 14.3807 306.19C16.7002 307.211 19.2702 308.167 22.0592 309.049C35.2248 313.216 53.382 315.785 73.4159 315.785C84.6501 315.785 94.837 314.697 102.229 312.93C105.922 312.047 108.945 310.989 111.057 309.795C113.129 308.624 114.5 307.22 114.5 305.583C114.5 303.947 113.129 302.543 111.057 301.372C108.945 300.179 105.922 299.12 102.229 298.237C94.837 296.47 84.6501 295.382 73.4159 295.382C53.3818 295.382 35.2243 297.967 22.0583 302.159C19.243 303.056 16.6508 304.027 14.3142 305.065C11.4212 303.761 8.96022 302.361 6.99033 300.887C3.37951 298.185 1.5 295.301 1.5 292.367C1.5 289.433 3.37949 286.548 6.99032 283.846C8.94523 282.384 11.3838 280.994 14.2483 279.698C16.6022 280.741 19.217 281.716 22.0592 282.616C35.2248 286.783 53.382 289.352 73.4159 289.352C84.6501 289.352 94.837 288.264 102.229 286.496C105.922 285.614 108.945 284.555 111.057 283.362C113.129 282.191 114.5 280.787 114.5 279.151C114.5 277.514 113.129 276.11 111.057 274.939C108.945 273.745 105.922 272.687 102.229 271.804C94.837 270.037 84.6501 268.949 73.4159 268.949C53.382 268.949 35.2248 271.518 22.0592 275.685C19.217 276.584 16.6022 277.56 14.2483 278.603C11.3838 277.307 8.94523 275.917 6.99032 274.454C3.3795 271.752 1.5 268.868 1.5 265.934C1.5 263 3.37951 260.115 6.99033 257.413C8.94528 255.95 11.3839 254.56 14.2485 253.265C16.6024 254.307 19.2171 255.283 22.0592 256.182C35.2248 260.349 53.382 262.918 73.4159 262.918C84.6501 262.918 94.837 261.83 102.229 260.063C105.922 259.181 108.945 258.122 111.057 256.928C113.129 255.758 114.5 254.353 114.5 252.717C114.5 251.08 113.129 249.676 111.057 248.505C108.945 247.311 105.922 246.253 102.229 245.37C94.837 243.603 84.6501 242.515 73.4159 242.515C53.382 242.515 35.2248 245.084 22.0592 249.251C19.2171 250.151 16.6024 251.126 14.2485 252.169C11.3839 250.873 8.94528 249.483 6.99032 248.021C3.3795 245.319 1.5 242.434 1.5 239.5C1.5 236.566 3.3795 233.681 6.99032 230.979C8.96021 229.506 11.4212 228.105 14.3142 226.801C16.6508 227.839 19.243 228.811 22.0583 229.708C35.2242 233.9 53.3818 236.485 73.4159 236.485C84.6501 236.485 94.837 235.397 102.229 233.63C105.922 232.747 108.945 231.689 111.057 230.495C113.129 229.324 114.5 227.92 114.5 226.283C114.5 224.647 113.129 223.242 111.057 222.072C108.945 220.878 105.922 219.819 102.229 218.937C94.837 217.17 84.6501 216.082 73.4159 216.082C53.382 216.082 35.2248 218.651 22.0592 222.818C19.244 223.709 16.6519 224.674 14.3155 225.706C11.4224 224.394 8.96142 222.985 6.9915 221.502C3.38112 218.784 1.5 215.881 1.5 212.926C1.5 209.971 3.38112 207.068 6.9915 204.35C8.96136 202.867 11.4223 201.458 14.3152 200.146C16.6517 201.178 19.2439 202.143 22.0592 203.034C35.2248 207.201 53.382 209.771 73.4159 209.771C84.6501 209.771 94.837 208.682 102.229 206.915C105.922 206.033 108.945 204.974 111.057 203.78C113.129 202.609 114.5 201.205 114.5 199.569C114.5 197.932 113.129 196.528 111.057 195.357C108.945 194.163 105.922 193.105 102.229 192.222C94.837 190.455 84.6501 189.367 73.4159 189.367C53.3818 189.367 35.2243 191.952 22.0583 196.144C19.2429 197.041 16.6506 198.012 14.314 199.051C11.4211 197.747 8.96016 196.346 6.99033 194.872C3.3795 192.171 1.5 189.286 1.5 186.352C1.5 183.418 3.3795 180.533 6.99032 177.831C8.94524 176.369 11.3838 174.978 14.2484 173.683C16.6022 174.726 19.217 175.701 22.0592 176.601C35.2248 180.768 53.382 183.337 73.4159 183.337C84.6501 183.337 94.837 182.249 102.229 180.482C105.922 179.599 108.945 178.54 111.057 177.347C113.129 176.176 114.5 174.772 114.5 173.135C114.5 171.499 113.129 170.094 111.057 168.924C108.945 167.73 105.922 166.671 102.229 165.789C94.837 164.022 84.6501 162.933 73.4159 162.933C53.382 162.933 35.2248 165.503 22.0592 169.669C19.217 170.569 16.6022 171.544 14.2484 172.587C11.3838 171.292 8.94524 169.902 6.99032 168.439C3.3795 165.737 1.5 162.852 1.5 159.918C1.5 156.984 3.3795 154.1 6.99032 151.398C10.5923 148.703 15.8361 146.254 22.3609 144.189C35.4047 140.061 53.4554 137.5 73.4159 137.5C73.6921 137.5 73.9159 137.276 73.9159 137C73.9159 136.724 73.6921 136.5 73.4159 136.5ZM73.4159 296.5C73.5386 296.5 73.6509 296.456 73.7379 296.383C84.7895 296.403 94.7709 297.483 101.997 299.21C105.649 300.083 108.569 301.115 110.565 302.243C112.6 303.393 113.5 304.541 113.5 305.583C113.5 306.626 112.6 307.774 110.565 308.925C108.569 310.052 105.649 311.084 101.997 311.957C94.7008 313.702 84.5956 314.785 73.4159 314.785C53.4554 314.785 35.4047 312.224 22.3609 308.096C19.9369 307.329 17.6896 306.509 15.6377 305.643C17.6896 304.777 19.9369 303.956 22.3609 303.189C35.4047 299.061 53.4554 296.5 73.4159 296.5ZM22.3609 467.096C19.9082 466.32 17.6365 465.489 15.565 464.612C17.6367 463.729 19.9087 462.893 22.3618 462.112C35.4052 457.959 53.4556 455.382 73.4159 455.382C84.5956 455.382 94.7008 456.466 101.997 458.21C105.649 459.083 108.569 460.115 110.565 461.243C112.6 462.393 113.5 463.541 113.5 464.583C113.5 465.626 112.6 466.774 110.565 467.925C108.569 469.052 105.649 470.084 101.997 470.957C94.7008 472.702 84.5956 473.785 73.4159 473.785C53.4554 473.785 35.4047 471.224 22.3609 467.096ZM22.3609 440.663C19.8818 439.878 17.5877 439.038 15.4982 438.15C17.5877 437.263 19.8818 436.423 22.3609 435.638C35.4047 431.51 53.4554 428.949 73.4159 428.949C84.5956 428.949 94.7008 430.032 101.997 431.776C105.649 432.65 108.569 433.682 110.565 434.809C112.6 435.96 113.5 437.108 113.5 438.151C113.5 439.193 112.6 440.341 110.565 441.491C108.569 442.619 105.649 443.651 101.997 444.524C94.7008 446.268 84.5956 447.352 73.4159 447.352C53.4554 447.352 35.4047 444.791 22.3609 440.663ZM22.3609 414.229C19.8819 413.444 17.5878 412.604 15.4984 411.717C17.5878 410.829 19.8819 409.989 22.3609 409.204C35.4047 405.076 53.4554 402.515 73.4159 402.515C84.5956 402.515 94.7008 403.599 101.997 405.343C105.649 406.216 108.569 407.248 110.565 408.376C112.6 409.526 113.5 410.674 113.5 411.717C113.5 412.759 112.6 413.908 110.565 415.058C108.569 416.186 105.649 417.218 101.997 418.09C94.7008 419.835 84.5956 420.918 73.4159 420.918C53.4554 420.918 35.4047 418.357 22.3609 414.229ZM22.3618 387.755C19.9087 386.974 17.6367 386.138 15.565 385.255C17.6365 384.378 19.9082 383.547 22.3609 382.771C35.4047 378.643 53.4554 376.082 73.4159 376.082C84.5956 376.082 94.7008 377.166 101.997 378.91C105.649 379.782 108.569 380.814 110.565 381.942C112.6 383.092 113.5 384.241 113.5 385.283C113.5 386.326 112.6 387.474 110.565 388.624C108.569 389.752 105.649 390.784 101.997 391.657C94.7008 393.401 84.5956 394.485 73.4159 394.485C53.4556 394.485 35.4052 391.908 22.3618 387.755ZM22.3609 361.081C19.9081 360.305 17.6363 359.474 15.5647 358.597C17.6365 357.714 19.9086 356.878 22.3618 356.097C35.4052 351.944 53.4556 349.367 73.4159 349.367C84.5956 349.367 94.7008 350.451 101.997 352.195C105.649 353.068 108.569 354.1 110.565 355.228C112.6 356.378 113.5 357.526 113.5 358.569C113.5 359.611 112.6 360.759 110.565 361.91C108.569 363.037 105.649 364.07 101.997 364.943C94.7008 366.687 84.5956 367.771 73.4159 367.771C53.4554 367.771 35.4047 365.209 22.3609 361.081ZM22.3609 334.647C19.8818 333.863 17.5877 333.023 15.4982 332.135C17.5877 331.247 19.8818 330.407 22.3609 329.623C35.4047 325.495 53.4554 322.933 73.4159 322.933C84.5956 322.933 94.7008 324.017 101.997 325.761C105.649 326.634 108.569 327.666 110.565 328.794C112.6 329.944 113.5 331.093 113.5 332.135C113.5 333.178 112.6 334.326 110.565 335.476C108.569 336.604 105.649 337.636 101.997 338.509C94.7008 340.253 84.5956 341.337 73.4159 341.337C53.4554 341.337 35.4047 338.776 22.3609 334.647ZM22.3609 281.663C19.8818 280.878 17.5876 280.038 15.4982 279.15C17.5876 278.263 19.8818 277.423 22.3609 276.638C35.4047 272.51 53.4554 269.949 73.4159 269.949C84.5956 269.949 94.7008 271.032 101.997 272.776C105.649 273.65 108.569 274.682 110.565 275.809C112.6 276.96 113.5 278.108 113.5 279.151C113.5 280.193 112.6 281.341 110.565 282.491C108.569 283.619 105.649 284.651 101.997 285.524C94.7008 287.268 84.5956 288.352 73.4159 288.352C53.4554 288.352 35.4047 285.791 22.3609 281.663ZM22.3609 255.229C19.8819 254.444 17.5878 253.604 15.4984 252.717C17.5878 251.829 19.8819 250.989 22.3609 250.204C35.4047 246.076 53.4554 243.515 73.4159 243.515C84.5956 243.515 94.7008 244.599 101.997 246.343C105.649 247.216 108.569 248.248 110.565 249.376C112.6 250.526 113.5 251.674 113.5 252.717C113.5 253.759 112.6 254.908 110.565 256.058C108.569 257.186 105.649 258.218 101.997 259.09C94.7008 260.834 84.5956 261.918 73.4159 261.918C53.4554 261.918 35.4047 259.357 22.3609 255.229ZM22.3618 228.755C19.9087 227.974 17.6367 227.138 15.5649 226.255C17.6365 225.378 19.9082 224.547 22.3609 223.771C35.4047 219.643 53.4554 217.082 73.4159 217.082C84.5956 217.082 94.7008 218.165 101.997 219.91C105.649 220.782 108.569 221.814 110.565 222.942C112.6 224.092 113.5 225.241 113.5 226.283C113.5 227.326 112.6 228.474 110.565 229.624C108.569 230.752 105.649 231.784 101.997 232.657C94.7008 234.401 84.5956 235.485 73.4159 235.485C53.4556 235.485 35.4052 232.908 22.3618 228.755ZM22.3609 202.081C19.9081 201.305 17.6363 200.474 15.5647 199.597C17.6365 198.714 19.9086 197.878 22.3618 197.097C35.4052 192.944 53.4556 190.367 73.4159 190.367C84.5956 190.367 94.7008 191.451 101.997 193.195C105.649 194.068 108.569 195.1 110.565 196.228C112.6 197.378 113.5 198.526 113.5 199.569C113.5 200.611 112.6 201.759 110.565 202.91C108.569 204.037 105.649 205.07 101.997 205.943C94.7008 207.687 84.5956 208.771 73.4159 208.771C53.4554 208.771 35.4047 206.209 22.3609 202.081ZM22.3609 175.647C19.8818 174.863 17.5877 174.023 15.4982 173.135C17.5877 172.247 19.8818 171.407 22.3609 170.623C35.4047 166.495 53.4554 163.933 73.4159 163.933C84.5956 163.933 94.7008 165.017 101.997 166.761C105.649 167.634 108.569 168.666 110.565 169.794C112.6 170.944 113.5 172.093 113.5 173.135C113.5 174.178 112.6 175.326 110.565 176.476C108.569 177.604 105.649 178.636 101.997 179.509C94.7008 181.253 84.5956 182.337 73.4159 182.337C53.4554 182.337 35.4047 179.776 22.3609 175.647Z" fill="#A1A6B4"/>
</svg>
