<svg width="34" height="11" viewBox="0 0 34 11" fill="none" xmlns="http://www.w3.org/2000/svg">
<path fill-rule="evenodd" clip-rule="evenodd" d="M0 0H0.5C4.85805 0 7.05544 2.66562 9.09653 5.14163L9.12976 5.18195C11.2012 7.69464 13.1257 10 16.9879 10C20.8502 10 22.7746 7.69464 24.8461 5.18195L24.8793 5.14163C26.9204 2.66562 29.1178 0 33.4758 0H34V1H33.4758C29.6136 1 27.6891 3.30536 25.6177 5.81805L25.5845 5.85837C23.5434 8.33438 21.346 11 16.9879 11C12.6299 11 10.4325 8.33438 8.3914 5.85837L8.35816 5.81805C6.28671 3.30536 4.36224 1 0.5 1H0V0Z" fill="#A1A6B4"/>
</svg>
